<?xml version="1.0" encoding="utf-8"?>
<!-- Generator: Adobe Illustrator 16.0.0, SVG Export Plug-In . SVG Version: 6.00 Build 0)  -->
<!DOCTYPE svg PUBLIC "-//W3C//DTD SVG 1.1//EN" "http://www.w3.org/Graphics/SVG/1.1/DTD/svg11.dtd">
<svg version="1.1" id="Untitled-P_x25_E1gina_x25_201"
	 xmlns="http://www.w3.org/2000/svg" xmlns:xlink="http://www.w3.org/1999/xlink" x="0px" y="0px" width="256px" height="256px"
	 viewBox="0 0 256 256" enable-background="new 0 0 256 256" xml:space="preserve">
<path fill="none" d="z"/>
<g id="Group_x25_201">
	<path id="Shape_x25_201" fill="#033101" d="M125.961,0.349c68.114,3.723,124.078,65.287,124.518,136.646
		c0.434,70.449-53.559,123.153-120.134,118.555C64.267,250.984,9.498,191.532,7.547,121.943
		C5.571,51.469,58.368-3.346,125.961,0.349z"/>
	<path id="Shape_x25_201_x25_20copy" fill="#378D0D" d="M125.915,8.577c62.742,2.113,115.376,58.413,116.449,125.892
		c1.076,67.678-50.124,118.99-113.231,114.51C67.239,244.582,17.35,187.987,16.633,122.663
		C15.919,57.523,64.374,6.505,125.915,8.577z"/>
	<path id="Shape_x25_201_x25_20copy_x25_202" fill="#0F6903" d="M117.242,29.638c50.982,9.135,94.669,58.626,100.605,114.147
		c6.207,58.051-30.554,108.268-89.056,105.293c-60.494-3.074-113.959-63.582-113.343-129.433
		C16.035,57.077,64.241,20.141,117.242,29.638z"/>
	<path id="Shape_x25_201_x25_20copy_x25_203" fill="#69BD15" d="M116.588,32.973c49.625,8.99,92.388,57.602,98.195,111.648
		c6.015,55.998-29.387,103.398-85.343,99.725C72.017,240.575,20.673,182.74,20.154,119.953
		C19.656,59.627,65.288,23.679,116.588,32.973z"/>
	<path id="Shape_x25_201_x25_20copy_x25_204" fill="#033101" d="M116.652,38.619c46.957,8.507,87.424,54.506,92.917,105.646
		c5.692,52.989-27.807,97.843-80.756,94.365c-54.337-3.567-102.921-58.293-103.412-117.707
		C24.93,63.841,68.108,29.824,116.652,38.619z"/>
	<path id="Shape_x25_201_x25_20copy_x25_205" fill="#FFFFFF" d="M116.735,45.817c43.558,7.891,81.093,50.559,86.188,97.997
		c5.28,49.152-25.793,90.757-74.908,87.531c-50.402-3.309-95.468-54.072-95.924-109.184C31.655,69.212,71.707,37.659,116.735,45.817
		z"/>
	<path id="Shape_x25_201_x25_20copy_x25_206" fill="#55A117" d="M116.774,48.999c42.056,7.619,78.298,48.816,83.218,94.619
		c5.098,47.459-24.903,87.629-72.326,84.516c-48.666-3.195-92.178-52.209-92.618-105.421
		C34.626,71.587,73.298,41.122,116.774,48.999z"/>
	<path id="Shape_x25_201_x25_20copy_x25_207" fill="#FFFFFF" d="M113.723,55.508c37.488,6.792,69.793,43.514,74.18,84.342
		c4.543,42.303-22.199,78.111-64.471,75.335c-43.379-2.849-82.166-46.538-82.558-93.97C40.498,75.643,74.969,48.487,113.723,55.508z
		"/>
	<path id="Shape_x25_204" d="M73.944,77.037c0,0-7.548,13.763,1.251,20.178c8.768,6.391,11.218,13.488,17.484,9.431
		c6.354-4.114,9.567-7.042,15.617-6.978c14.252,0.151,16.82,12.492,22.1,12.999c5.303,0.509,28.895-5.952,24.394-16.439
		c-4.569-10.647-8.261-13.789-8.261-13.789s31.203,22.349,19.54,30.818c-11.36,8.25-20.28,12.462-19.954,16.274
		c0.209,2.443,1.736,5.309,1.736,5.309s7.291,4.515,11.336,11.896c4.005,7.309,1.169,13.518,1.169,13.518
		s-10.182,0.893-20.419-19.462c-4.112-8.179-6.476,2.2-6.476,2.2l0.889,19.918c0,0,0.921,6.879-9.64,11.658
		c-0.125,4.805-0.447,17.152-0.447,17.152l-8.047,10.188l-10.628-2.016l-8.03-13.514l0.347-18.937c0,0-12.024-7.583-10.999-15.479
		c1.043-8.032,0.549-18.217-0.242-20.217c-0.793-2.006-4.314-6.081-8.792,0.167c-4.405,6.145-16.942,11.162-18.617,6.117
		c-1.689-5.087,9.64-15.067,14.201-15.769c4.588-0.706,4.128-4.351-1.355-8.108c-5.494-3.765-18.257-16.31-10.818-24.234
		C68.891,81.814,73.944,77.037,73.944,77.037z"/>
	<path id="Shape_x25_203" opacity="0.2902" fill="#FFFFFF" enable-background="new    " d="M201.481,105.086
		C187.26,92.444,42.667,34.766,33.185,173.827C15.802,128,8.367,57.958,83.753,34.766
		C150.059,14.366,203.062,94.025,201.481,105.086z"/>
	<path id="Shape_x25_202" opacity="0.2902" fill="#FFFFFF" enable-background="new    " d="M60.839,208.593
		c0,0,124.84,77.433,152.495-62.42C219.654,203.852,157.234,295.506,60.839,208.593z"/>
</g>
<path fill="none" d="z"/>
</svg>
