<?xml version="1.0" encoding="utf-8"?>
<!-- Generator: Adobe Illustrator 16.0.0, SVG Export Plug-In . SVG Version: 6.00 Build 0)  -->
<!DOCTYPE svg PUBLIC "-//W3C//DTD SVG 1.1//EN" "http://www.w3.org/Graphics/SVG/1.1/DTD/svg11.dtd">
<svg version="1.1" id="Capa_1" xmlns="http://www.w3.org/2000/svg" xmlns:xlink="http://www.w3.org/1999/xlink" x="0px" y="0px"
	 width="256px" height="256px" viewBox="0 0 256 256" enable-background="new 0 0 256 256" xml:space="preserve">
<circle fill="#3FA9F5" cx="127.654" cy="128.359" r="127.641"/>
<g>
	<path fill-rule="evenodd" clip-rule="evenodd" fill="#FEFEFE" d="M43.776,65.162c2.513,0.467,5.021,0.961,7.539,1.396
		c5.132,0.886,10.275,1.708,15.401,2.626c1.719,0.308,2.698,1.526,3.319,3.128c3.329,8.585,6.706,17.152,10.021,25.742
		c0.318,0.824,0.7,1.089,1.581,1.107c10.97,0.224,21.938,0.492,32.906,0.756c9.251,0.224,18.5,0.457,27.752,0.687
		c9.367,0.232,18.734,0.458,28.102,0.702c4.293,0.111,8.586,0.378,12.877,0.348c2.623-0.019,4.426,0.855,5.344,3.351
		c0,0.625,0,1.25,0,1.875c-0.254,1.881-0.521,3.761-0.76,5.645c-0.533,4.208-1.064,8.417-1.574,12.628
		c-0.504,4.173-0.971,8.351-1.471,12.524c-0.598,4.984-1.27,9.961-1.801,14.952c-0.342,3.204-1.467,4.526-4.627,4.925
		c-0.965,0.122-1.941,0.153-2.912,0.234c-5.357,0.448-10.715,0.916-16.074,1.344c-4.428,0.354-8.861,0.64-13.291,0.995
		c-7.34,0.589-14.678,1.225-22.018,1.812c-5.399,0.432-10.805,0.795-16.203,1.238c-1.172,0.097-2.596,0.044-3.443,0.676
		c-5.035,3.75-9.943,7.67-14.871,11.561c-1.285,1.016-2.141,2.354-2.547,3.961c-0.549,2.179,0.423,3.9,2.588,4.448
		c0.67,0.169,1.387,0.208,2.082,0.213c7.458,0.057,14.916,0.118,22.375,0.133c16.715,0.034,33.434,0.04,50.149,0.062
		c5.664,0.008,11.328,0.018,16.99,0.056c2.111,0.015,3.758,1.167,4.342,2.931c0.57,1.718,0.057,3.657-1.514,4.641
		c-0.836,0.522-1.941,0.771-2.947,0.838c-1.916,0.128-3.848,0.037-5.955,0.037c5.338,4.385,4.43,9.981,1.596,13.078
		c-3.15,3.44-8.613,3.702-11.994,0.595c-4.066-3.737-3.789-8.518,0.945-13.783c-24.213,0-48.266,0-72.285,0
		c4.138,3.973,5.089,7.466,3.062,11.345c-1.771,3.388-5.513,5.155-9.346,4.416c-3.471-0.67-6.438-3.823-6.774-7.17
		c-0.433-4.3,1.686-8.029,6.491-9.632c-0.699-0.356-1.374-0.649-1.997-1.025c-4.349-2.623-7.473-7.213-6.119-12.973
		c0.955-4.065,3.392-7.104,6.623-9.611c3.325-2.579,6.623-5.194,9.948-7.806c-0.115-0.307-0.207-0.559-0.305-0.809
		c-4.268-10.929-8.531-21.858-12.803-32.786c-6.321-16.175-12.642-32.351-18.996-48.512c-0.18-0.457-0.677-0.969-1.129-1.101
		c-1.037-0.3-2.139-0.371-3.212-0.552c-5.593-0.943-11.188-1.873-16.775-2.851c-1.785-0.313-3.148-1.867-3.424-3.707
		c-0.229-1.533,0.766-3.373,2.264-4.178c0.328-0.176,0.662-0.34,0.994-0.51C42.526,65.162,43.151,65.162,43.776,65.162z
		 M114.749,106.402c-4.779-0.124-9.517-0.246-14.33-0.37c0,4.955,0,9.852,0,14.832c4.759,0,9.493,0,14.33,0
		C114.749,116.037,114.749,111.291,114.749,106.402z M117.865,120.883c4.756,0,9.459,0,14.233,0c0-4.656,0-9.28,0-14.063
		c-4.717-0.125-9.415-0.249-14.233-0.376C117.865,111.327,117.865,116.073,117.865,120.883z M114.734,154.399
		c0-4.674,0-9.292,0-13.967c-4.791,0-9.526,0-14.233,0c-0.645,5.275-0.114,10.286,2.771,14.921
		C107.021,155.041,110.849,154.723,114.734,154.399z M135.238,106.884c0,4.706,0,9.296,0,13.974c4.736,0,9.477,0,14.309,0
		c0-4.476,0-8.974,0-13.608C144.771,107.128,140.035,107.007,135.238,106.884z M166.98,120.889c0-4.369,0-8.682,0-13.2
		c-4.752-0.121-9.516-0.243-14.365-0.366c0,4.55,0,9.009,0,13.566C157.434,120.889,162.176,120.889,166.98,120.889z
		 M149.576,137.301c0-4.453,0-8.844,0-13.316c-4.766,0-9.506,0-14.32,0c0,4.422,0,8.844,0,13.316
		C140.039,137.301,144.775,137.301,149.576,137.301z M114.734,123.968c-4.797,0-9.533,0-14.33,0c0,4.454,0,8.843,0,13.313
		c4.771,0,9.506,0,14.33,0C114.734,132.807,114.734,128.414,114.734,123.968z M166.973,137.316c0-4.434,0-8.821,0-13.312
		c-4.766,0-9.533,0-14.371,0c0,4.394,0,8.785,0,13.312C157.412,137.316,162.156,137.316,166.973,137.316z M132.135,124
		c-4.734,0-9.436,0-14.231,0c0,4.381,0,8.804,0,13.295c4.709,0,9.413,0,14.231,0C132.135,132.827,132.135,128.461,132.135,124z
		 M132.127,140.449c-4.74,0-9.438,0-14.227,0c0,4.52,0,9.058,0,13.72c4.705-0.375,9.413-0.751,14.227-1.135
		C132.127,148.77,132.127,144.648,132.127,140.449z M135.248,140.422c0,4.129,0,8.207,0,12.365c4.779-0.38,9.506-0.755,14.309-1.137
		c0-3.76,0-7.444,0-11.229C144.736,140.422,140.025,140.422,135.248,140.422z M97.396,105.87c-4.541,0-9.049,0-13.67,0
		c0.575,1.507,1.19,3.146,1.825,4.777c1.226,3.148,2.479,6.286,3.683,9.443c0.24,0.631,0.536,0.89,1.245,0.874
		c2.261-0.052,4.524-0.019,6.917-0.019C97.396,115.906,97.396,111.002,97.396,105.87z M152.598,140.421c0,3.65,0,7.253,0,10.988
		c4.803-0.385,9.555-0.766,14.375-1.151c0-3.284,0-6.5,0-9.837C162.148,140.421,157.406,140.421,152.598,140.421z M180.553,120.891
		c0.516-4.267,1.027-8.488,1.561-12.903c-4.109,0-8.072,0-12.121,0c0,4.195,0,8.5,0,12.903
		C173.549,120.891,177.01,120.891,180.553,120.891z M178.553,137.332c0.539-4.418,1.078-8.831,1.629-13.34c-3.42,0-6.781,0-10.209,0
		c0,4.445,0,8.833,0,13.34C172.85,137.332,175.615,137.332,178.553,137.332z M173.59,149.761c1.123-0.091,2.242-0.202,3.498-0.316
		c0.361-2.966,0.723-5.951,1.094-9.012c-2.787,0-5.457,0-8.199,0c0,3.172,0,6.306,0,9.586
		C171.268,149.928,172.43,149.854,173.59,149.761z M165.395,200.002c0,2.817,2.211,5.063,5,5.076c2.82,0.015,5.117-2.295,5.1-5.126
		c-0.018-2.791-2.254-4.974-5.09-4.967C167.537,194.991,165.396,197.135,165.395,200.002z M88.832,205.078
		c2.808,0.01,5.121-2.322,5.097-5.137c-0.024-2.781-2.274-4.964-5.111-4.956c-2.865,0.007-4.995,2.152-4.993,5.029
		C83.827,202.832,86.038,205.068,88.832,205.078z M97.392,123.998c-2.169,0-4.316,0-6.609,0c0.641,1.652,1.251,3.233,1.866,4.812
		c0.972,2.493,1.992,4.968,2.899,7.483c0.348,0.963,0.834,1.311,1.844,0.954C97.392,132.874,97.392,128.482,97.392,123.998z"/>
	<path fill-rule="evenodd" clip-rule="evenodd" fill="#FFFFFF" d="M170.375,202.755c1.596,0.014,2.771-1.106,2.775-2.645
		c0.002-1.5-1.24-2.755-2.729-2.757c-1.529-0.001-2.686,1.193-2.678,2.767C167.75,201.668,168.824,202.742,170.375,202.755z"/>
	<path fill-rule="evenodd" clip-rule="evenodd" fill="#FFFFFF" d="M86.164,200.05c-0.016,1.596,1.084,2.706,2.682,2.706
		c1.534,0,2.691-1.087,2.74-2.575c0.049-1.465-1.195-2.781-2.67-2.826C87.396,197.309,86.179,198.5,86.164,200.05z"/>
</g>
</svg>
